# Blender v2.79 (sub 0) OBJ File: ''
# www.blender.org
mtllib loadTest.mtl
o Cone
v 0.179247 0.723255 -0.149456
v 0.374337 0.723255 -0.130241
v 0.561930 0.723255 -0.073335
v 0.734817 0.723255 0.019075
v 0.886353 0.723255 0.143438
v 1.010716 0.723255 0.294974
v 1.103126 0.723255 0.467861
v 1.160032 0.723255 0.655454
v 1.179247 0.723255 0.850544
v 1.160032 0.723255 1.045635
v 1.103126 0.723255 1.233228
v 1.010716 0.723255 1.406115
v 0.886353 0.723255 1.557651
v 0.734817 0.723255 1.682014
v 0.561930 0.723255 1.774424
v 0.374337 0.723255 1.831330
v 0.179246 0.723255 1.850544
v -0.015844 0.723255 1.831330
v -0.203437 0.723255 1.774424
v -0.376324 0.723255 1.682014
v -0.527861 0.723255 1.557651
v -0.652223 0.723255 1.406114
v -0.744633 0.723255 1.233227
v 0.179247 2.723255 0.850544
v -0.801539 0.723255 1.045634
v -0.820753 0.723255 0.850543
v -0.801539 0.723255 0.655453
v -0.744633 0.723255 0.467860
v -0.652222 0.723255 0.294973
v -0.527859 0.723255 0.143437
v -0.376323 0.723255 0.019074
v -0.203436 0.723255 -0.073336
v -0.015842 0.723255 -0.130241
vn 0.0878 0.4455 -0.8910
vn 0.2599 0.4455 -0.8567
vn 0.4220 0.4455 -0.7896
vn 0.5680 0.4455 -0.6921
vn 0.6921 0.4455 -0.5680
vn 0.7896 0.4455 -0.4220
vn 0.8567 0.4455 -0.2599
vn 0.8910 0.4455 -0.0878
vn 0.8910 0.4455 0.0878
vn 0.8567 0.4455 0.2599
vn 0.7896 0.4455 0.4220
vn 0.6921 0.4455 0.5680
vn 0.5680 0.4455 0.6921
vn 0.4220 0.4455 0.7896
vn 0.2599 0.4455 0.8567
vn 0.0878 0.4455 0.8910
vn -0.0878 0.4455 0.8910
vn -0.2599 0.4455 0.8567
vn -0.4220 0.4455 0.7896
vn -0.5680 0.4455 0.6921
vn -0.6921 0.4455 0.5680
vn -0.7896 0.4455 0.4220
vn -0.8567 0.4455 0.2599
vn -0.8910 0.4455 0.0878
vn -0.8910 0.4455 -0.0878
vn -0.8567 0.4455 -0.2599
vn -0.7896 0.4455 -0.4220
vn -0.6921 0.4455 -0.5680
vn -0.5680 0.4455 -0.6921
vn -0.4220 0.4455 -0.7896
vn -0.2599 0.4455 -0.8567
vn -0.0878 0.4455 -0.8910
vn 0.0000 -1.0000 -0.0000
usemtl Material.003
s off
f 1//1 24//1 2//1
f 2//2 24//2 3//2
f 3//3 24//3 4//3
f 4//4 24//4 5//4
f 5//5 24//5 6//5
f 6//6 24//6 7//6
f 7//7 24//7 8//7
f 8//8 24//8 9//8
f 9//9 24//9 10//9
f 10//10 24//10 11//10
f 11//11 24//11 12//11
f 12//12 24//12 13//12
f 13//13 24//13 14//13
f 14//14 24//14 15//14
f 15//15 24//15 16//15
f 16//16 24//16 17//16
f 17//17 24//17 18//17
f 18//18 24//18 19//18
f 19//19 24//19 20//19
f 20//20 24//20 21//20
f 21//21 24//21 22//21
f 22//22 24//22 23//22
f 23//23 24//23 25//23
f 25//24 24//24 26//24
f 26//25 24//25 27//25
f 27//26 24//26 28//26
f 28//27 24//27 29//27
f 29//28 24//28 30//28
f 30//29 24//29 31//29
f 31//30 24//30 32//30
f 32//31 24//31 33//31
f 33//32 24//32 1//32
f 1//33 2//33 3//33 4//33 5//33 6//33 7//33 8//33 9//33 10//33 11//33 12//33 13//33 14//33 15//33 16//33 17//33 18//33 19//33 20//33 21//33 22//33 23//33 25//33 26//33 27//33 28//33 29//33 30//33 31//33 32//33 33//33
o Icosphere.001
v 2.655572 0.259430 2.083573
v 3.379179 0.812210 2.609298
v 2.379184 0.812210 2.934222
v 1.761145 0.812214 2.083573
v 2.379184 0.812210 1.232924
v 3.379179 0.812210 1.557848
v 2.931960 1.706650 2.934222
v 1.931964 1.706649 2.609298
v 1.931964 1.706649 1.557848
v 2.931960 1.706650 1.232924
v 3.549998 1.706645 2.083573
v 2.655572 2.259430 2.083573
v 2.493116 0.408775 2.583568
v 3.080894 0.408776 2.392585
v 2.918441 0.733692 2.892585
v 3.506220 0.733694 2.083573
v 3.080894 0.408776 1.774562
v 2.129842 0.408778 2.083573
v 1.967382 0.733694 2.583570
v 2.493116 0.408775 1.583578
v 1.967382 0.733694 1.583576
v 2.918441 0.733692 1.274561
v 3.606630 1.259430 2.392586
v 3.606630 1.259430 1.774560
v 2.655572 1.259430 3.083573
v 3.243357 1.259430 2.892590
v 1.704514 1.259430 2.392586
v 2.067786 1.259430 2.892590
v 2.067786 1.259430 1.274556
v 1.704514 1.259430 1.774560
v 3.243357 1.259430 1.274556
v 2.655572 1.259430 1.083573
v 3.343761 1.785166 2.583570
v 2.392703 1.785167 2.892585
v 1.804924 1.785166 2.083573
v 2.392703 1.785167 1.274561
v 3.343761 1.785166 1.583576
v 2.818027 2.110084 2.583568
v 3.181302 2.110081 2.083573
v 2.230249 2.110084 2.392585
v 2.230249 2.110084 1.774562
v 2.818027 2.110084 1.583578
vn 0.1024 -0.9435 0.3151
vn 0.7002 -0.6617 0.2680
vn -0.2680 -0.9435 0.1947
vn -0.2680 -0.9435 -0.1947
vn 0.1024 -0.9435 -0.3151
vn 0.9050 -0.3304 0.2680
vn 0.0247 -0.3304 0.9435
vn -0.8897 -0.3304 0.3151
vn -0.5746 -0.3304 -0.7488
vn 0.5346 -0.3304 -0.7779
vn 0.8026 -0.1256 0.5831
vn -0.3066 -0.1256 0.9435
vn -0.9921 -0.1256 0.0000
vn -0.3066 -0.1256 -0.9435
vn 0.8026 -0.1256 -0.5831
vn 0.4089 0.6617 0.6284
vn -0.4713 0.6617 0.5831
vn -0.7002 0.6617 -0.2680
vn 0.0385 0.6617 -0.7488
vn 0.7240 0.6617 -0.1947
vn 0.2680 0.9435 -0.1947
vn 0.4911 0.7947 -0.3568
vn 0.4089 0.6617 -0.6284
vn -0.1024 0.9435 -0.3151
vn -0.1876 0.7947 -0.5773
vn -0.4713 0.6617 -0.5831
vn -0.3313 0.9435 0.0000
vn -0.6071 0.7947 0.0000
vn -0.7002 0.6617 0.2680
vn -0.1024 0.9435 0.3151
vn -0.1876 0.7947 0.5773
vn 0.0385 0.6617 0.7488
vn 0.2680 0.9435 0.1947
vn 0.4911 0.7947 0.3568
vn 0.7240 0.6617 0.1947
vn 0.8897 0.3304 -0.3151
vn 0.7947 0.1876 -0.5773
vn 0.5746 0.3304 -0.7488
vn -0.0247 0.3304 -0.9435
vn -0.3035 0.1876 -0.9342
vn -0.5346 0.3304 -0.7779
vn -0.9050 0.3304 -0.2680
vn -0.9822 0.1876 0.0000
vn -0.9050 0.3304 0.2680
vn -0.5346 0.3304 0.7779
vn -0.3035 0.1876 0.9342
vn -0.0247 0.3304 0.9435
vn 0.5746 0.3304 0.7488
vn 0.7947 0.1876 0.5773
vn 0.8897 0.3304 0.3151
vn 0.3066 0.1256 -0.9435
vn 0.3035 -0.1876 -0.9342
vn 0.0247 -0.3304 -0.9435
vn -0.8026 0.1256 -0.5831
vn -0.7947 -0.1876 -0.5773
vn -0.8897 -0.3304 -0.3151
vn -0.8026 0.1256 0.5831
vn -0.7947 -0.1876 0.5773
vn -0.5746 -0.3304 0.7488
vn 0.3066 0.1256 0.9435
vn 0.3035 -0.1876 0.9342
vn 0.5346 -0.3304 0.7779
vn 0.9921 0.1256 0.0000
vn 0.9822 -0.1876 0.0000
vn 0.9050 -0.3304 -0.2680
vn 0.4713 -0.6617 -0.5831
vn 0.1876 -0.7947 -0.5773
vn -0.0385 -0.6617 -0.7488
vn -0.4089 -0.6617 -0.6284
vn -0.4911 -0.7947 -0.3568
vn -0.7240 -0.6617 -0.1947
vn -0.7240 -0.6617 0.1947
vn -0.4911 -0.7947 0.3568
vn -0.4089 -0.6617 0.6284
vn 0.7002 -0.6617 -0.2680
vn 0.6071 -0.7947 0.0000
vn 0.3313 -0.9435 0.0000
vn -0.0385 -0.6617 0.7488
vn 0.1876 -0.7947 0.5773
vn 0.4713 -0.6617 0.5831
usemtl Material.002
s off
f 34//34 47//34 46//34
f 35//35 47//35 49//35
f 34//36 46//36 51//36
f 34//37 51//37 53//37
f 34//38 53//38 50//38
f 35//39 49//39 56//39
f 36//40 48//40 58//40
f 37//41 52//41 60//41
f 38//42 54//42 62//42
f 39//43 55//43 64//43
f 35//44 56//44 59//44
f 36//45 58//45 61//45
f 37//46 60//46 63//46
f 38//47 62//47 65//47
f 39//48 64//48 57//48
f 40//49 66//49 71//49
f 41//50 67//50 73//50
f 42//51 68//51 74//51
f 43//52 69//52 75//52
f 44//53 70//53 72//53
f 72//54 75//54 45//54
f 72//55 70//55 75//55
f 70//56 43//56 75//56
f 75//57 74//57 45//57
f 75//58 69//58 74//58
f 69//59 42//59 74//59
f 74//60 73//60 45//60
f 74//61 68//61 73//61
f 68//62 41//62 73//62
f 73//63 71//63 45//63
f 73//64 67//64 71//64
f 67//65 40//65 71//65
f 71//66 72//66 45//66
f 71//67 66//67 72//67
f 66//68 44//68 72//68
f 57//69 70//69 44//69
f 57//70 64//70 70//70
f 64//71 43//71 70//71
f 65//72 69//72 43//72
f 65//73 62//73 69//73
f 62//74 42//74 69//74
f 63//75 68//75 42//75
f 63//76 60//76 68//76
f 60//77 41//77 68//77
f 61//78 67//78 41//78
f 61//79 58//79 67//79
f 58//80 40//80 67//80
f 59//81 66//81 40//81
f 59//82 56//82 66//82
f 56//83 44//83 66//83
f 64//84 65//84 43//84
f 64//85 55//85 65//85
f 55//86 38//86 65//86
f 62//87 63//87 42//87
f 62//88 54//88 63//88
f 54//89 37//89 63//89
f 60//90 61//90 41//90
f 60//91 52//91 61//91
f 52//92 36//92 61//92
f 58//93 59//93 40//93
f 58//94 48//94 59//94
f 48//95 35//95 59//95
f 56//96 57//96 44//96
f 56//97 49//97 57//97
f 49//98 39//98 57//98
f 50//99 55//99 39//99
f 50//100 53//100 55//100
f 53//101 38//101 55//101
f 53//102 54//102 38//102
f 53//103 51//103 54//103
f 51//104 37//104 54//104
f 51//105 52//105 37//105
f 51//106 46//106 52//106
f 46//107 36//107 52//107
f 49//108 50//108 39//108
f 49//109 47//109 50//109
f 47//110 34//110 50//110
f 46//111 48//111 36//111
f 46//112 47//112 48//112
f 47//113 35//113 48//113
o Icosphere
v -2.292595 0.486695 -1.489603
v -1.568988 1.039475 -0.963878
v -2.568983 1.039475 -0.638954
v -3.187021 1.039479 -1.489603
v -2.568983 1.039475 -2.340252
v -1.568988 1.039475 -2.015328
v -2.016207 1.933915 -0.638954
v -3.016202 1.933914 -0.963878
v -3.016202 1.933914 -2.015328
v -2.016207 1.933915 -2.340252
v -1.398169 1.933911 -1.489603
v -2.292595 2.486695 -1.489603
v -2.455050 0.636041 -0.989608
v -1.867272 0.636041 -1.180592
v -2.029726 0.960957 -0.680592
v -1.441947 0.960959 -1.489603
v -1.867272 0.636041 -1.798615
v -2.818325 0.636043 -1.489603
v -2.980784 0.960959 -0.989606
v -2.455050 0.636041 -1.989598
v -2.980784 0.960959 -1.989600
v -2.029726 0.960957 -2.298615
v -1.341537 1.486695 -1.180591
v -1.341537 1.486695 -1.798616
v -2.292595 1.486695 -0.489603
v -1.704809 1.486695 -0.680586
v -3.243653 1.486695 -1.180591
v -2.880381 1.486695 -0.680586
v -2.880381 1.486695 -2.298620
v -3.243653 1.486695 -1.798616
v -1.704809 1.486695 -2.298620
v -2.292595 1.486695 -2.489603
v -1.604406 2.012431 -0.989606
v -2.555464 2.012433 -0.680592
v -3.143243 2.012431 -1.489603
v -2.555464 2.012433 -2.298615
v -1.604406 2.012431 -1.989600
v -2.130139 2.337349 -0.989608
v -1.766865 2.337347 -1.489603
v -2.717918 2.337349 -1.180592
v -2.717918 2.337349 -1.798615
v -2.130139 2.337349 -1.989598
vn 0.1024 -0.9435 0.3151
vn 0.7002 -0.6617 0.2680
vn -0.2680 -0.9435 0.1947
vn -0.2680 -0.9435 -0.1947
vn 0.1024 -0.9435 -0.3151
vn 0.9050 -0.3304 0.2680
vn 0.0247 -0.3304 0.9435
vn -0.8897 -0.3304 0.3151
vn -0.5746 -0.3304 -0.7488
vn 0.5346 -0.3304 -0.7779
vn 0.8026 -0.1256 0.5831
vn -0.3066 -0.1256 0.9435
vn -0.9921 -0.1256 0.0000
vn -0.3066 -0.1256 -0.9435
vn 0.8026 -0.1256 -0.5831
vn 0.4089 0.6617 0.6284
vn -0.4713 0.6617 0.5831
vn -0.7002 0.6617 -0.2680
vn 0.0385 0.6617 -0.7488
vn 0.7240 0.6617 -0.1947
vn 0.2680 0.9435 -0.1947
vn 0.4911 0.7947 -0.3568
vn 0.4089 0.6617 -0.6284
vn -0.1024 0.9435 -0.3151
vn -0.1876 0.7947 -0.5773
vn -0.4713 0.6617 -0.5831
vn -0.3313 0.9435 0.0000
vn -0.6071 0.7947 0.0000
vn -0.7002 0.6617 0.2680
vn -0.1024 0.9435 0.3151
vn -0.1876 0.7947 0.5773
vn 0.0385 0.6617 0.7488
vn 0.2680 0.9435 0.1947
vn 0.4911 0.7947 0.3568
vn 0.7240 0.6617 0.1947
vn 0.8897 0.3304 -0.3151
vn 0.7947 0.1876 -0.5773
vn 0.5746 0.3304 -0.7488
vn -0.0247 0.3304 -0.9435
vn -0.3035 0.1876 -0.9342
vn -0.5346 0.3304 -0.7779
vn -0.9050 0.3304 -0.2680
vn -0.9822 0.1876 0.0000
vn -0.9050 0.3304 0.2680
vn -0.5346 0.3304 0.7779
vn -0.3035 0.1876 0.9342
vn -0.0247 0.3304 0.9435
vn 0.5746 0.3304 0.7488
vn 0.7947 0.1876 0.5773
vn 0.8897 0.3304 0.3151
vn 0.3066 0.1256 -0.9435
vn 0.3035 -0.1876 -0.9342
vn 0.0247 -0.3304 -0.9435
vn -0.8026 0.1256 -0.5831
vn -0.7947 -0.1876 -0.5773
vn -0.8897 -0.3304 -0.3151
vn -0.8026 0.1256 0.5831
vn -0.7947 -0.1876 0.5773
vn -0.5746 -0.3304 0.7488
vn 0.3066 0.1256 0.9435
vn 0.3035 -0.1876 0.9342
vn 0.5346 -0.3304 0.7779
vn 0.9921 0.1256 0.0000
vn 0.9822 -0.1876 0.0000
vn 0.9050 -0.3304 -0.2680
vn 0.4713 -0.6617 -0.5831
vn 0.1876 -0.7947 -0.5773
vn -0.0385 -0.6617 -0.7488
vn -0.4089 -0.6617 -0.6284
vn -0.4911 -0.7947 -0.3568
vn -0.7240 -0.6617 -0.1947
vn -0.7240 -0.6617 0.1947
vn -0.4911 -0.7947 0.3568
vn -0.4089 -0.6617 0.6284
vn 0.7002 -0.6617 -0.2680
vn 0.6071 -0.7947 0.0000
vn 0.3313 -0.9435 0.0000
vn -0.0385 -0.6617 0.7488
vn 0.1876 -0.7947 0.5773
vn 0.4713 -0.6617 0.5831
usemtl Material.001
s off
f 76//114 89//114 88//114
f 77//115 89//115 91//115
f 76//116 88//116 93//116
f 76//117 93//117 95//117
f 76//118 95//118 92//118
f 77//119 91//119 98//119
f 78//120 90//120 100//120
f 79//121 94//121 102//121
f 80//122 96//122 104//122
f 81//123 97//123 106//123
f 77//124 98//124 101//124
f 78//125 100//125 103//125
f 79//126 102//126 105//126
f 80//127 104//127 107//127
f 81//128 106//128 99//128
f 82//129 108//129 113//129
f 83//130 109//130 115//130
f 84//131 110//131 116//131
f 85//132 111//132 117//132
f 86//133 112//133 114//133
f 114//134 117//134 87//134
f 114//135 112//135 117//135
f 112//136 85//136 117//136
f 117//137 116//137 87//137
f 117//138 111//138 116//138
f 111//139 84//139 116//139
f 116//140 115//140 87//140
f 116//141 110//141 115//141
f 110//142 83//142 115//142
f 115//143 113//143 87//143
f 115//144 109//144 113//144
f 109//145 82//145 113//145
f 113//146 114//146 87//146
f 113//147 108//147 114//147
f 108//148 86//148 114//148
f 99//149 112//149 86//149
f 99//150 106//150 112//150
f 106//151 85//151 112//151
f 107//152 111//152 85//152
f 107//153 104//153 111//153
f 104//154 84//154 111//154
f 105//155 110//155 84//155
f 105//156 102//156 110//156
f 102//157 83//157 110//157
f 103//158 109//158 83//158
f 103//159 100//159 109//159
f 100//160 82//160 109//160
f 101//161 108//161 82//161
f 101//162 98//162 108//162
f 98//163 86//163 108//163
f 106//164 107//164 85//164
f 106//165 97//165 107//165
f 97//166 80//166 107//166
f 104//167 105//167 84//167
f 104//168 96//168 105//168
f 96//169 79//169 105//169
f 102//170 103//170 83//170
f 102//171 94//171 103//171
f 94//172 78//172 103//172
f 100//173 101//173 82//173
f 100//174 90//174 101//174
f 90//175 77//175 101//175
f 98//176 99//176 86//176
f 98//177 91//177 99//177
f 91//178 81//178 99//178
f 92//179 97//179 81//179
f 92//180 95//180 97//180
f 95//181 80//181 97//181
f 95//182 96//182 80//182
f 95//183 93//183 96//183
f 93//184 79//184 96//184
f 93//185 94//185 79//185
f 93//186 88//186 94//186
f 88//187 78//187 94//187
f 91//188 92//188 81//188
f 91//189 89//189 92//189
f 89//190 76//190 92//190
f 88//191 90//191 78//191
f 88//192 89//192 90//192
f 89//193 77//193 90//193
o Cube
v 4.999998 0.250000 -4.999997
v 4.999998 0.250000 4.999998
v -4.999998 0.250000 4.999997
v -4.999996 0.250000 -5.000000
v 5.000000 0.750000 -4.999995
v 4.999994 0.750000 5.000000
v -5.000000 0.750000 4.999996
v -4.999997 0.750000 -4.999998
vn 0.0000 -1.0000 0.0000
vn 0.0000 1.0000 0.0000
vn 1.0000 0.0000 0.0000
vn -0.0000 -0.0000 1.0000
vn -1.0000 -0.0000 -0.0000
vn 0.0000 0.0000 -1.0000
usemtl Material
s off
f 118//194 119//194 120//194 121//194
f 122//195 125//195 124//195 123//195
f 118//196 122//196 123//196 119//196
f 119//197 123//197 124//197 120//197
f 120//198 124//198 125//198 121//198
f 122//199 118//199 121//199 125//199
